<svg xmlns="http://www.w3.org/2000/svg" width="512" height="512" viewBox="0 0 512 512" role="img" aria-label="HugPaw logo">
  <style>
    :root {
      /* Light theme */
      --icon-fill: #111111;      /* dark icon on light tabs */
      --bg-fill: transparent;    /* no badge in light */
      --inset: 0;                 /* no margin in light */
    }
    @media (prefers-color-scheme: dark) {
      :root {
        /* Dark theme */
        --icon-fill: #111111;     /* white icon on dark tabs */
        --bg-fill: #E6EEFE;       /* HugPaw blue badge */
	--inset: 32;              /* margin around badge */
      }
    }
    svg path { fill: var(--icon-fill); }
  </style>

  <!-- Rounded badge to ensure contrast in dark mode -->
  <rect x="0" y="0" width="512" height="512" rx="96" fill="var(--bg-fill)"/>

  <!-- Your optimized paths -->
  <path d="M411.29 12.516c5.936 4.81 11.283 9.865 16.124 15.804 3.402 3.604 8.353 2.975 12.988 3.18l2.524.123q4.005.194 8.012.377c33.53 1.576 33.53 1.576 38.062 6 5.912 7.495 7.963 15.858 10 25l.586 2.406C501.223 75.664 501.307 86.862 496 96l-1.25 2.246c-9.085 14.892-25.172 26.051-41.125 32.567-5.764 2.821-8.418 8.7-10.437 14.535-2.485 10.335-1.586 21.191-.012 31.593l.392 2.595c1.784 11.284 4.39 22.395 6.932 33.527 8.388 36.792 14.21 72.6 3.617 109.64l-.902 3.188c-5.32 18.648-11.006 37.194-16.622 55.755a6061 6061 0 0 0-3.876 12.866q-.726 2.415-1.46 4.829c-7.4 23.625-7.4 23.625-3.62 47.475 3.65 5.846 8.24 8.312 14.3 10.997 8.881 4.198 13.076 8.762 16.441 18.006 1.034 3.625 1.11 7.119 1.06 10.868l-.017 2.358c-.19 7.311-1.15 15.56-5.636 21.588-2.532 1.94-4.34 1.745-7.51 1.748l-3.615.026-3.972-.019q-2.09.006-4.18.016c-3.784.014-7.57.008-11.354-.001-3.96-.008-7.919 0-11.878.004q-9.975.007-19.952-.016c-7.69-.016-15.378-.01-23.068.006q-9.9.02-19.799.007-5.914-.008-11.828.005-5.562.013-11.122-.015c-2.01-.006-4.02.003-6.031.013l-3.624-.026-3.15-.003c-3.113-.435-4.477-1.186-6.702-3.378-.836-2.96-.836-2.96-1.375-6.375-1.027-5.53-1.027-5.53-4.437-9.75-3.136-1.91-3.136-1.91-6.375-3.375-3.392-1.809-4.523-2.873-5.813-6.5.685-4.566 2.071-8.267 4-12.437 4.324-9.504 6.052-20.903 3.313-31.13-1.601-3.514-3.43-5.68-6.5-7.995C286 429 286 429 284.938 425.5c.069-3.867.68-5.501 3.062-8.5 3.409-1.704 6.372-1.914 10-1 8.43 5.424 13.871 13.233 16 23 .986 11.338.103 22.023-3.125 32.91-1.011 3.036-1.011 3.036-.875 6.09a967 967 0 0 0 4.332 3.41c3.07 2.927 5.087 6.679 6.668 10.59v4h46c-3.314-4.142-4.708-5.747-9-8.187l-2.562-1.481A183 183 0 0 0 349 483q-.149-7.256-.22-14.514-.03-2.465-.082-4.929a537 537 0 0 1-.089-7.12l-.062-2.194c-.003-7.583 3.187-13.189 8.203-18.743 14.155-17.218 18.66-39.715 18.563-61.5l-.011-3.834c-.16-13.97-1.871-27.439-5.849-40.853-.51-2.606-.457-3.865.547-6.313a81 81 0 0 1 3.563-4.25C387.154 302.151 390.65 283.004 389 262c-1.275-9.965-4.172-19.35-8.047-28.594C380 231 380 231 380 229a4632 4632 0 0 0-8.5 4.688l-2.398 1.318c-4.574 2.53-9.003 5.159-13.326 8.1-3.065 1.543-5.58.738-8.776-.106-4.89-1.266-9.733-1.184-14.75-1.187l-2.594-.038c-5.115-.011-9.633.485-14.56 1.892-4.666.741-8.128-1.033-12.073-3.355l-2.78-1.617-2.868-1.695q-2.83-1.659-5.664-3.312l-2.522-1.489c-2.257-1.32-2.257-1.32-5.189-2.199-8.106 22.98-8.21 47.759 2.092 70.092a371 371 0 0 0 3.201 6.494C291 310 291 310 292 313l-1.674.516C277.942 317.374 266.362 321.728 255 328l-2.89 1.594c-5.767 3.325-10.996 7.153-16.11 11.406l-2.398 1.953C210.003 363.053 198.08 392.68 195 423a242 242 0 0 0-.238 8.18l-.03 2.309a1035 1035 0 0 0-.044 7.386l-.008 2.555c-.007 19.3 2.304 37.79 7.586 56.398.746 3.222 1.013 5.88.734 9.172l-2 3c-2.117.38-2.117.38-4.789.388l-3.066.03-3.377-.014-3.55.02q-4.832.023-9.665.012c-2.7-.003-5.4.003-8.1.009q-9.584.02-19.166.001c-6.55-.011-13.099.002-19.648.03q-8.467.032-16.936.022-5.04-.007-10.082.017c-27.26.109-52.101-3.02-72.933-22.265-15.931-17.04-18.537-37.912-17.863-60.287 1.041-17.65 11.891-33.351 24.425-45.15 8.196-7.009 17.209-13.21 28.242-13.098 4.536.516 7.102 2.976 10.32 5.973 3.473 6.762 1.962 14.118.313 21.187q-.569 2.647-1.125 5.297l-.535 2.533c-2.169 10.706-1.49 19.705 3.242 29.604 1.854 2.425 3.502 3.429 6.293 4.691 2.737.238 5.214.33 7.938.25l2.091-.016A67.3 67.3 0 0 0 105 440l.77 3.21q.52 2.084 1.043 4.165l.501 2.117c1.118 4.545 1.118 4.545 4.686 7.508 3.572-.082 3.572-.082 7-1 2.238-3.357 2.182-3.892 1.688-7.687l-.301-2.45q-.444-3.269-.91-6.535c-7.408-60.297 17.473-132.078 54.273-179.523L176 257l2.438-3.055c10.168-12.492 21.454-24.014 34.414-33.597C234.64 204.1 257.786 181.15 267 155l3.938.477c21.79 2.391 37.951-2.362 57.062-12.477 7.157-3.736 12.457-6.445 20.586-5.902 5.34-.216 10.164-3.126 14.117-6.59 2.592-2.875 4.498-5.585 4.297-9.508-1.937-3.02-1.937-3.02-5-5-4.21-.175-5.627.661-8.75 3.5L351 122c-2.436 1.218-3.676.942-6.375.75-8.856-.038-16.143 4.41-23.715 8.569-14.744 8.06-29.961 14.005-46.992 9.947-9.346-3.42-14.555-9.527-18.918-18.266-7.308-18.17 0-44.857 7.222-62.19C265.87 52.324 269.932 44.99 276 38l1.402-1.793c9.527-11.043 26.117-15.794 39.407-20.383a234 234 0 0 0 21.146-8.513C361.884-3.575 389.75-4.31 411.29 12.516m-30.54 31.672c-1.705 2.74-2.387 4.636-2.75 7.812 3.342 3.237 6.107 4.721 10.8 5.105 3.931-.188 7.749-1.202 11.2-3.105l1-3-2.59-1.715-3.348-2.222-1.708-1.131c-4.24-2.819-4.24-2.819-5.354-3.932-3.583-.581-4.599-.39-7.25 2.188"/>
  <path d="m233.531 495.482 3.358-.038 3.611.025 3.72-.012q3.894-.004 7.788.022c3.977.02 7.952 0 11.93-.026q3.78.004 7.562.016l3.611-.025c1.662.02 1.662.02 3.358.038l2.95.01c3.302.65 4.497 1.923 6.581 4.508.531 2 .531 2 .5 4l.031 2c-.775 2.92-2.22 4.094-4.531 6-2.58.508-2.58.508-5.531.518l-3.358.038-3.611-.025-3.72.012q-3.894.004-7.788-.022c-3.977-.02-7.952 0-11.93.026q-3.78-.004-7.562-.016l-3.611.025c-1.662-.02-1.662-.02-3.358-.038l-2.95-.01c-3.302-.65-4.497-1.923-6.581-4.508-.531-2-.531-2-.5-4l-.031-2c1.386-5.217 5.106-6.501 10.062-6.518M258 367c3.692 2.592 4.829 4.041 5.625 8.5-.795 4.453-2.279 5.517-5.625 8.5-5.986 6.66-9.747 14.447-10.5 23.438-.5 3.562-.5 3.562-2.125 6-3.236 2.128-5.508 2.562-9.375 2.562-2.802-1.766-4.515-3.03-6-6-.845-13.31 3.985-26.36 12.563-36.562 4.722-4.97 8.318-7.455 15.437-6.438m76-75.5c.712-.015 1.423-.03 2.156-.047 3.447.026 5.492.293 8.313 2.328 1.614 2.339 2.075 3.416 2.031 6.219l.031 2c-.81 3.048-1.976 4.157-4.531 6-2.83.401-5.183.561-8 .5-.712.015-1.423.03-2.156.047-3.447-.026-5.492-.293-8.313-2.328-1.614-2.339-2.075-3.416-2.031-6.219l-.031-2c1.705-6.418 6.78-6.625 12.531-6.5m28-26.5c2.462 3.693 2.673 6.714 2 11-1.5 2.5-1.5 2.5-4 4-4.021.791-6.964.622-10.5-1.5-2.108-3.514-2.33-6.501-1.5-10.5 4.148-5.579 7.79-5.258 14-3m-44 0c2.462 3.693 2.673 6.714 2 11-1.5 2.5-1.5 2.5-4 4-4.021.791-6.964.622-10.5-1.5-2.108-3.514-2.33-6.501-1.5-10.5 4.148-5.579 7.79-5.258 14-3"/>
</svg>
